<svg width="321" height="176" viewBox="0 0 321 176" fill="none" xmlns="http://www.w3.org/2000/svg">
<g opacity="0.7">
<path d="M42.3628 93.345H100.938V115.784H86.6583V138.223H64.2191V115.784H0.690063L59.8479 25.8818H86.804L42.3628 93.345ZM160.32 22.9677C183.05 22.9677 205.198 35.9357 205.198 56.6264V107.479C205.198 127.732 183.779 141.138 160.32 141.138C137.589 141.138 115.442 128.169 115.442 107.479V56.6264C115.442 36.2272 136.861 22.9677 160.32 22.9677ZM160.32 45.4068C151.14 45.4068 137.881 49.9238 137.881 56.6264V70.7602H182.759V56.6264C182.759 50.0695 170.374 45.4068 160.32 45.4068ZM160.32 118.698C169.5 118.698 182.759 114.181 182.759 107.479V93.345H137.881V107.479C137.881 114.036 150.266 118.698 160.32 118.698ZM255.661 93.345H314.236V115.784H299.957V138.223H277.518V115.784H213.989L273.146 25.8818H300.102L255.661 93.345Z" fill="#333333"/>
<path d="M42.3628 93.345L41.5277 92.7949L40.5066 94.345H42.3628V93.345ZM100.938 93.345H101.938V92.345H100.938V93.345ZM100.938 115.784V116.784H101.938V115.784H100.938ZM86.6583 115.784V114.784H85.6583V115.784H86.6583ZM86.6583 138.223V139.223H87.6583V138.223H86.6583ZM64.2191 138.223H63.2191V139.223H64.2191V138.223ZM64.2191 115.784H65.2191V114.784H64.2191V115.784ZM0.690063 115.784L-0.145305 115.235L-1.16504 116.784H0.690063V115.784ZM59.8479 25.8818V24.8818H59.3088L59.0125 25.3321L59.8479 25.8818ZM86.804 25.8818L87.6391 26.4319L88.6602 24.8818H86.804V25.8818ZM42.3628 94.345H100.938V92.345H42.3628V94.345ZM99.9378 93.345V115.784H101.938V93.345H99.9378ZM100.938 114.784H86.6583V116.784H100.938V114.784ZM85.6583 115.784V138.223H87.6583V115.784H85.6583ZM86.6583 137.223H64.2191V139.223H86.6583V137.223ZM65.2191 138.223V115.784H63.2191V138.223H65.2191ZM64.2191 114.784H0.690063V116.784H64.2191V114.784ZM1.52543 116.334L60.6832 26.4315L59.0125 25.3321L-0.145305 115.235L1.52543 116.334ZM59.8479 26.8818H86.804V24.8818H59.8479V26.8818ZM85.9689 25.3317L41.5277 92.7949L43.1979 93.8952L87.6391 26.4319L85.9689 25.3317ZM137.881 70.7602H136.881V71.7602H137.881V70.7602ZM182.759 70.7602V71.7602H183.759V70.7602H182.759ZM182.759 93.345H183.759V92.345H182.759V93.345ZM137.881 93.345V92.345H136.881V93.345H137.881ZM160.32 23.9677C171.51 23.9677 182.523 27.1626 190.712 32.8589C198.888 38.5464 204.198 46.6815 204.198 56.6264H206.198C206.198 45.8807 200.435 37.1864 191.854 31.2171C183.286 25.2568 171.861 21.9677 160.32 21.9677V23.9677ZM204.198 56.6264V107.479H206.198V56.6264H204.198ZM204.198 107.479C204.198 117.213 199.061 125.349 190.977 131.088C182.882 136.835 171.872 140.138 160.32 140.138V142.138C172.227 142.138 183.656 138.738 192.135 132.719C200.625 126.691 206.198 117.998 206.198 107.479H204.198ZM160.32 140.138C149.13 140.138 138.116 136.943 129.928 131.246C121.752 125.559 116.442 117.424 116.442 107.479H114.442C114.442 118.225 120.205 126.919 128.786 132.888C137.354 138.848 148.779 142.138 160.32 142.138V140.138ZM116.442 107.479V56.6264H114.442V107.479H116.442ZM116.442 56.6264C116.442 46.8176 121.58 38.6828 129.661 32.9636C137.755 27.2353 148.766 23.9677 160.32 23.9677V21.9677C148.415 21.9677 136.986 25.3298 128.506 31.331C120.013 37.3414 114.442 46.036 114.442 56.6264H116.442ZM160.32 44.4068C155.594 44.4068 149.847 45.5639 145.255 47.5881C142.958 48.6004 140.897 49.8531 139.394 51.3333C137.889 52.8161 136.881 54.5962 136.881 56.6264H138.881C138.881 55.3053 139.53 54.0073 140.798 52.758C142.068 51.5063 143.895 50.373 146.061 49.4182C150.394 47.5083 155.866 46.4068 160.32 46.4068V44.4068ZM136.881 56.6264V70.7602H138.881V56.6264H136.881ZM137.881 71.7602H182.759V69.7602H137.881V71.7602ZM183.759 70.7602V56.6264H181.759V70.7602H183.759ZM183.759 56.6264C183.759 54.6498 182.821 52.8925 181.385 51.411C179.951 49.9333 177.971 48.6723 175.725 47.6479C171.232 45.5991 165.48 44.4068 160.32 44.4068V46.4068C165.214 46.4068 170.681 47.5459 174.895 49.4676C177.002 50.4285 178.746 51.5627 179.949 52.8034C181.148 54.0402 181.759 55.3246 181.759 56.6264H183.759ZM160.32 119.698C165.046 119.698 170.793 118.541 175.385 116.517C177.682 115.505 179.743 114.252 181.246 112.772C182.751 111.289 183.759 109.509 183.759 107.479H181.759C181.759 108.8 181.11 110.098 179.842 111.347C178.571 112.599 176.744 113.732 174.578 114.687C170.246 116.597 164.774 117.698 160.32 117.698V119.698ZM183.759 107.479V93.345H181.759V107.479H183.759ZM182.759 92.345H137.881V94.345H182.759V92.345ZM136.881 93.345V107.479H138.881V93.345H136.881ZM136.881 107.479C136.881 109.455 137.818 111.213 139.255 112.694C140.688 114.172 142.669 115.433 144.915 116.457C149.407 118.506 155.16 119.698 160.32 119.698V117.698C155.426 117.698 149.959 116.559 145.745 114.638C143.638 113.677 141.894 112.543 140.691 111.302C139.491 110.065 138.881 108.781 138.881 107.479H136.881ZM255.661 93.345L254.826 92.7949L253.805 94.345H255.661V93.345ZM314.236 93.345H315.236V92.345H314.236V93.345ZM314.236 115.784V116.784H315.236V115.784H314.236ZM299.957 115.784V114.784H298.957V115.784H299.957ZM299.957 138.223V139.223H300.957V138.223H299.957ZM277.518 138.223H276.518V139.223H277.518V138.223ZM277.518 115.784H278.518V114.784H277.518V115.784ZM213.989 115.784L213.153 115.235L212.133 116.784H213.989V115.784ZM273.146 25.8818V24.8818H272.607L272.311 25.3321L273.146 25.8818ZM300.102 25.8818L300.938 26.4319L301.959 24.8818H300.102V25.8818ZM255.661 94.345H314.236V92.345H255.661V94.345ZM313.236 93.345V115.784H315.236V93.345H313.236ZM314.236 114.784H299.957V116.784H314.236V114.784ZM298.957 115.784V138.223H300.957V115.784H298.957ZM299.957 137.223H277.518V139.223H299.957V137.223ZM278.518 138.223V115.784H276.518V138.223H278.518ZM277.518 114.784H213.989V116.784H277.518V114.784ZM214.824 116.334L273.982 26.4315L272.311 25.3321L213.153 115.235L214.824 116.334ZM273.146 26.8818H300.102V24.8818H273.146V26.8818ZM299.267 25.3317L254.826 92.7949L256.496 93.8952L300.938 26.4319L299.267 25.3317Z" fill="white"/>
</g>
<path d="M40.3337 88.9661C38.6384 91.6868 35.0533 92.4982 32.3082 90.7876C29.5753 89.0847 28.669 85.5426 30.3949 82.7729C32.0978 80.0401 35.663 79.2332 38.4327 80.9591C41.1533 82.6544 42.052 86.2088 40.3337 88.9661ZM32.2822 83.949C31.2436 85.6156 31.7685 87.8312 33.4842 88.9004C35.1999 89.9695 37.4155 89.4445 38.4465 87.7901C39.4621 86.1602 39.0337 83.9536 37.2567 82.8464C35.5165 81.762 33.3284 82.27 32.2822 83.949ZM43.9133 82.6756L34.4646 76.7879L35.6407 74.9006L43.251 79.6429L44.8089 77.1429L43.853 76.5472L42.7457 78.3242L41.0668 77.278L42.1741 75.501L37.1985 72.4006L38.3745 70.5133L43.3501 73.6137L44.465 71.8245L46.144 72.8707L45.029 74.6599L45.9849 75.2556L47.5428 72.7555L39.9324 68.0133L41.1084 66.126L50.557 72.0137L43.9133 82.6756ZM51.4752 70.5403L42.0143 64.6449L43.198 62.7453L49.4481 66.64L46.0235 58.211L47.2071 56.3114L56.668 62.2068L55.4844 64.1064L51.2015 65.0274L52.6665 68.6285L51.4752 70.5403ZM49.2343 60.2117L50.34 62.9424L52.7393 62.3958L49.2343 60.2117ZM52.2592 54.7841L54.0843 51.8551C55.2145 50.0414 57.4287 49.6007 59.2302 50.7232C60.1125 51.2731 60.7321 52.1355 60.9676 53.1499C61.2031 54.1644 61.027 55.2116 60.4772 56.0939L57.5829 60.7386L48.122 54.8432L52.2534 48.2132L54.1407 49.3893L51.193 54.1197L52.2592 54.7841ZM54.0361 55.8914L55.8744 57.0369L54.6929 54.8375L54.0361 55.8914ZM55.9469 52.8797L57.7605 56.2216L58.5776 54.9103C59.0587 54.1382 58.8186 53.1039 58.0465 52.6228C57.3602 52.1951 56.4864 52.3141 55.9469 52.8797ZM60.9779 44.7513L68.2819 43.569L66.7164 46.0813L63.5946 46.586L64.4789 49.672L63.3029 51.5593L53.842 45.6639L55.018 43.7766L57.4935 45.3192L58.7575 45.1201L57.2555 40.1859L58.821 37.6736L60.9779 44.7513ZM61.9911 48.1218L61.6252 46.907L61.362 46.9471L60.3734 47.1138L61.9911 48.1218ZM68.7394 42.8347L63.1143 39.3296C60.4305 37.6572 60.3286 34.7354 61.6039 32.6888C62.8945 30.6177 65.5256 29.5351 68.185 31.1922L73.81 34.6974L72.634 36.5847L68.0261 33.7133L68.3422 39.9501L69.9231 40.9352L68.7394 42.8347ZM65.9769 38.4763L65.8085 32.7398C64.7798 32.6432 63.9616 33.1372 63.5111 33.8602C62.7703 35.049 62.9377 36.5824 64.298 37.4301L65.9769 38.4763Z" fill="white"/>
</svg>
