<svg width="974" height="534" viewBox="0 0 974 534" fill="none" xmlns="http://www.w3.org/2000/svg">
    <path d="M127.215 286.165L125.545 285.065L123.503 288.165H127.215V286.165ZM305.703 286.165H307.703V284.165H305.703V286.165ZM305.703 354.541V356.541H307.703V354.541H305.703ZM262.191 354.541V352.541H260.191V354.541H262.191ZM262.191 422.917V424.917H264.191V422.917H262.191ZM193.815 422.917H191.815V424.917H193.815V422.917ZM193.815 354.541H195.815V352.541H193.815V354.541ZM0.231445 354.541L-1.43929 353.442L-3.47875 356.541H0.231445V354.541ZM180.495 80.5931V78.5931H179.417L178.825 79.4937L180.495 80.5931ZM262.635 80.5931L264.306 81.6933L266.348 78.5931H262.635V80.5931ZM127.215 288.165H305.703V284.165H127.215V288.165ZM303.703 286.165V354.541H307.703V286.165H303.703ZM305.703 352.541H262.191V356.541H305.703V352.541ZM260.191 354.541V422.917H264.191V354.541H260.191ZM262.191 420.917H193.815V424.917H262.191V420.917ZM195.815 422.917V354.541H191.815V422.917H195.815ZM193.815 352.541H0.231445V356.541H193.815V352.541ZM1.90218 355.641L182.166 81.6925L178.825 79.4937L-1.43929 353.442L1.90218 355.641ZM180.495 82.5931H262.635V78.5931H180.495V82.5931ZM260.965 79.4929L125.545 285.065L128.886 287.265L264.306 81.6933L260.965 79.4929ZM418.275 217.345H416.275V219.345H418.275V217.345ZM555.027 217.345V219.345H557.027V217.345H555.027ZM555.027 286.165H557.027V284.165H555.027V286.165ZM418.275 286.165V284.165H416.275V286.165H418.275ZM486.651 73.7131C520.932 73.7131 554.708 83.4979 579.859 100.994C604.984 118.472 621.403 143.554 621.403 174.277H625.403C625.403 141.952 608.078 115.752 582.143 97.7103C556.234 79.6863 521.634 69.7131 486.651 69.7131V73.7131ZM621.403 174.277V329.233H625.403V174.277H621.403ZM621.403 329.233C621.403 359.307 605.522 384.39 580.676 402.028C555.807 419.682 522.037 429.797 486.651 429.797V433.797C522.748 433.797 557.355 423.488 582.991 405.289C608.65 387.075 625.403 360.876 625.403 329.233H621.403ZM486.651 429.797C452.37 429.797 418.593 420.012 393.443 402.516C368.318 385.038 351.899 359.956 351.899 329.233H347.899C347.899 361.558 365.224 387.758 391.159 405.8C417.068 423.824 451.668 433.797 486.651 433.797V429.797ZM351.899 329.233V174.277H347.899V329.233H351.899ZM351.899 174.277C351.899 143.979 367.782 118.898 392.624 101.318C417.49 83.7196 451.26 73.7131 486.651 73.7131V69.7131C450.558 69.7131 415.951 79.9086 390.313 98.0526C364.649 116.215 347.899 142.415 347.899 174.277H351.899ZM486.651 138.089C472.393 138.089 455.023 141.586 441.167 147.694C434.237 150.749 428.078 154.503 423.621 158.894C419.159 163.29 416.275 168.462 416.275 174.277H420.275C420.275 169.88 422.441 165.673 426.429 161.744C430.422 157.81 436.112 154.294 442.78 151.354C456.118 145.475 472.937 142.089 486.651 142.089V138.089ZM416.275 174.277V217.345H420.275V174.277H416.275ZM418.275 219.345H555.027V215.345H418.275V219.345ZM557.027 217.345V174.277H553.027V217.345H557.027ZM557.027 174.277C557.027 168.607 554.341 163.5 550.087 159.114C545.84 154.735 539.929 150.959 533.157 147.871C519.614 141.694 502.235 138.089 486.651 138.089V142.089C501.703 142.089 518.511 145.588 531.497 151.51C537.99 154.472 543.429 157.994 547.216 161.899C550.995 165.796 553.027 169.957 553.027 174.277H557.027ZM486.651 365.421C500.909 365.421 518.278 361.925 532.135 355.816C539.064 352.762 545.223 349.007 549.68 344.616C554.142 340.22 557.027 335.048 557.027 329.233H553.027C553.027 333.63 550.861 337.838 546.873 341.767C542.88 345.701 537.19 349.217 530.522 352.156C517.183 358.036 500.365 361.421 486.651 361.421V365.421ZM557.027 329.233V286.165H553.027V329.233H557.027ZM555.027 284.165H418.275V288.165H555.027V284.165ZM416.275 286.165V329.233H420.275V286.165H416.275ZM416.275 329.233C416.275 334.903 418.96 340.01 423.215 344.396C427.461 348.775 433.373 352.551 440.144 355.639C453.687 361.816 471.067 365.421 486.651 365.421V361.421C471.599 361.421 454.79 357.922 441.804 352C435.311 349.039 429.873 345.516 426.086 341.612C422.307 337.715 420.275 333.553 420.275 329.233H416.275ZM777.172 286.165L775.502 285.065L773.46 288.165H777.172V286.165ZM955.66 286.165H957.66V284.165H955.66V286.165ZM955.66 354.541V356.541H957.66V354.541H955.66ZM912.148 354.541V352.541H910.148V354.541H912.148ZM912.148 422.917V424.917H914.148V422.917H912.148ZM843.772 422.917H841.772V424.917H843.772V422.917ZM843.772 354.541H845.772V352.541H843.772V354.541ZM650.188 354.541L648.518 353.442L646.478 356.541H650.188V354.541ZM830.453 80.5931V78.5931H829.374L828.782 79.4937L830.453 80.5931ZM912.592 80.5931L914.263 81.6933L916.305 78.5931H912.592V80.5931ZM777.172 288.165H955.66V284.165H777.172V288.165ZM953.66 286.165V354.541H957.66V286.165H953.66ZM955.66 352.541H912.148V356.541H955.66V352.541ZM910.148 354.541V422.917H914.148V354.541H910.148ZM912.148 420.917H843.772V424.917H912.148V420.917ZM845.772 422.917V354.541H841.772V422.917H845.772ZM843.772 352.541H650.188V356.541H843.772V352.541ZM651.859 355.641L832.123 81.6925L828.782 79.4937L648.518 353.442L651.859 355.641ZM830.453 82.5931H912.592V78.5931H830.453V82.5931ZM910.922 79.4929L775.502 285.065L778.843 287.265L914.263 81.6933L910.922 79.4929Z" fill="#313030"/>
    <path d="M121.691 270.706C116.526 278.996 105.601 281.469 97.2362 276.256C88.9087 271.067 86.1471 260.274 91.406 251.834C96.5952 243.507 107.459 241.048 115.899 246.307C124.189 251.473 126.927 262.304 121.691 270.706ZM97.1569 255.418C93.9922 260.496 95.5917 267.248 100.82 270.505C106.048 273.763 112.799 272.164 115.941 267.122C119.035 262.156 117.73 255.432 112.315 252.058C107.012 248.754 100.345 250.302 97.1569 255.418ZM132.599 251.538L103.807 233.597L107.391 227.846L130.581 242.296L135.328 234.678L132.415 232.863L129.041 238.278L123.925 235.09L127.299 229.675L112.138 220.228L115.721 214.477L130.883 223.924L134.28 218.472L139.396 221.66L135.999 227.112L138.912 228.927L143.659 221.309L120.468 206.859L124.052 201.108L152.844 219.049L132.599 251.538ZM155.641 214.559L126.812 196.595L130.419 190.807L149.464 202.674L139.029 176.99L142.636 171.201L171.465 189.166L167.858 194.954L154.807 197.76L159.271 208.734L155.641 214.559ZM148.813 183.086L152.182 191.407L159.493 189.741L148.813 183.086ZM158.03 166.547L163.592 157.622C167.036 152.095 173.783 150.753 179.272 154.173C181.961 155.849 183.849 158.477 184.566 161.568C185.284 164.659 184.747 167.85 183.072 170.539L174.253 184.692L145.424 166.728L158.013 146.525L163.763 150.108L154.781 164.523L158.03 166.547ZM163.445 169.921L169.046 173.412L165.446 166.71L163.445 169.921ZM169.267 160.744L174.794 170.928L177.284 166.932C178.75 164.579 178.018 161.427 175.665 159.961C173.574 158.658 170.911 159.021 169.267 160.744ZM184.598 135.976L206.854 132.373L202.084 140.028L192.571 141.566L195.266 150.97L191.682 156.721L162.853 138.757L166.437 133.006L173.98 137.706L177.832 137.099L173.255 122.064L178.025 114.409L184.598 135.976ZM187.685 146.246L186.57 142.544L185.768 142.667L182.756 143.175L187.685 146.246ZM208.248 130.136L191.108 119.455C182.93 114.359 182.619 105.456 186.505 99.2193C190.438 92.9082 198.455 89.6093 206.559 94.6589L223.699 105.34L220.116 111.091L206.075 102.341L207.038 121.346L211.855 124.347L208.248 130.136ZM199.831 116.855L199.317 99.3746C196.183 99.0803 193.69 100.585 192.317 102.789C190.059 106.411 190.569 111.084 194.715 113.667L199.831 116.855Z" fill="#313030"/>
</svg>
