<svg width="22" height="25" viewBox="0 0 22 25" fill="none" xmlns="http://www.w3.org/2000/svg">
<path id="Vector" d="M21.6 13.8238C21.521 15.2612 21.0984 16.6587 20.3676 17.899C19.6368 19.1393 18.6191 20.1862 17.4 20.9518L10.8 24.6238L4.2 20.9518C2.98088 20.1862 1.96321 19.1393 1.2324 17.899C0.501589 16.6587 0.0789649 15.2612 0 13.8238V4.22378C4.056 4.22378 7.8 2.87978 10.8 0.623779C13.8 2.89178 17.544 4.22378 21.6 4.22378V13.8238ZM10.8 15.1198L14.304 17.5678L13.068 13.4758L16.476 10.8958L12.204 10.7998L10.8 6.76778L9.396 10.7998L5.124 10.8958L8.52 13.4638L7.284 17.5438L10.8 15.1318V15.1198Z" fill="white"/>
</svg>
