<svg width="24" height="25" viewBox="0 0 24 25" fill="none" xmlns="http://www.w3.org/2000/svg">
<g clip-path="url(#clip0_223_119)">
<path d="M10.5858 3.38269L3.99981 9.96869C3.71994 10.2484 3.52932 10.6048 3.45207 10.9928C3.37481 11.3809 3.4144 11.7831 3.56581 12.1487L3.63381 12.2937C3.80152 12.6215 4.05645 12.8966 4.37052 13.0887C4.6846 13.2809 5.04562 13.3826 5.41381 13.3827H7.99981V20.3827C7.99981 20.9131 8.21052 21.4218 8.58559 21.7969C10.1054 21.9633 13.6625 21.9976 15.4663 21.7432C15.8094 21.3733 16 20.8873 15.9998 20.3827L15.9988 13.3827H18.5858C18.9813 13.3826 19.3679 13.2653 19.6967 13.0455C20.0255 12.8257 20.2818 12.5134 20.4332 12.148C20.5845 11.7826 20.6241 11.3805 20.547 10.9926C20.4698 10.6047 20.2794 10.2484 19.9998 9.96869L13.4138 3.38269C13.0387 3.00775 12.5301 2.79712 11.9998 2.79712C11.4695 2.79712 10.9609 3.00775 10.5858 3.38269Z" fill="white"/>
<rect x="8.18018" y="22.9821" width="7.5835" height="1.12787" rx="0.563934" fill="white"/>
</g>
<defs>
<clipPath id="clip0_223_119">
<rect width="24" height="24" fill="white" transform="translate(0 0.38269)"/>
</clipPath>
</defs>
</svg>
