<svg width="22" height="25" viewBox="0 0 22 25" fill="none" xmlns="http://www.w3.org/2000/svg">
<path id="Vector" fill-rule="evenodd" clip-rule="evenodd" d="M11.024 0.150146C8.12296 0.150146 5.48014 1.1449 3.91629 1.95763C3.775 2.03097 3.64334 2.10298 3.52067 2.17231C3.2779 2.30966 3.0711 2.43767 2.90669 2.55035L4.68569 5.26924L5.52317 5.61527C8.79603 7.32941 13.1851 7.32941 16.4586 5.61527L17.4091 5.10323L19.0911 2.55035C18.7427 2.31436 18.3804 2.10126 18.0064 1.91229C16.4502 1.10823 13.8704 0.150146 11.0246 0.150146H11.024ZM6.88665 3.22774C6.25669 3.10537 5.63449 2.94327 5.02351 2.74236C6.48846 2.06697 8.67143 1.35025 11.024 1.35025C12.6533 1.35025 14.1941 1.69428 15.4683 2.13031C13.975 2.34833 12.3817 2.71836 10.8634 3.17373C9.66883 3.53243 8.2726 3.49376 6.88665 3.22774ZM17.1368 6.60402L16.9788 6.68669C13.3784 8.57218 8.60271 8.57218 5.00232 6.68669L4.85267 6.60802C-0.55627 12.7692 -4.68587 24.1501 11.024 24.1501C26.7338 24.1501 22.5034 12.5565 17.1368 6.60402ZM10.3567 12.1511C10.016 12.1511 9.68929 12.2916 9.44841 12.5417C9.20752 12.7918 9.07219 13.1309 9.07219 13.4846C9.07219 13.8382 9.20752 14.1774 9.44841 14.4275C9.68929 14.6775 10.016 14.818 10.3567 14.818V12.1511ZM11.6411 10.8177V10.151H10.3567V10.8177C9.67534 10.8177 9.02192 11.0987 8.54014 11.5988C8.05837 12.099 7.78771 12.7773 7.78771 13.4846C7.78771 14.1919 8.05837 14.8702 8.54014 15.3704C9.02192 15.8705 9.67534 16.1515 10.3567 16.1515V18.8184C9.79792 18.8184 9.32202 18.4483 9.14476 17.9296C9.11847 17.8448 9.07604 17.7662 9.02 17.6987C8.96395 17.6311 8.89543 17.576 8.81848 17.5364C8.74153 17.4968 8.65772 17.4737 8.572 17.4683C8.48628 17.4629 8.4004 17.4755 8.31943 17.5052C8.23846 17.5349 8.16405 17.5811 8.10061 17.6412C8.03716 17.7013 7.98596 17.7739 7.95004 17.8549C7.91411 17.9359 7.8942 18.0235 7.89147 18.1126C7.88874 18.2017 7.90325 18.2905 7.93414 18.3737C8.1113 18.8937 8.43938 19.3439 8.87323 19.6624C9.30707 19.9808 9.82534 20.1518 10.3567 20.1518V20.8185H11.6411V20.1518C12.3225 20.1518 12.9759 19.8708 13.4577 19.3707C13.9395 18.8706 14.2101 18.1922 14.2101 17.4849C14.2101 16.7776 13.9395 16.0993 13.4577 15.5991C12.9759 15.099 12.3225 14.818 11.6411 14.818V12.1511C12.1999 12.1511 12.6758 12.5212 12.8531 13.0399C12.8794 13.1248 12.9218 13.2033 12.9778 13.2708C13.0339 13.3384 13.1024 13.3936 13.1793 13.4331C13.2563 13.4727 13.3401 13.4959 13.4258 13.5012C13.5115 13.5066 13.5974 13.494 13.6784 13.4643C13.7594 13.4346 13.8338 13.3884 13.8972 13.3283C13.9607 13.2682 14.0119 13.1956 14.0478 13.1146C14.0837 13.0336 14.1036 12.946 14.1064 12.8569C14.1091 12.7678 14.0946 12.679 14.0637 12.5958C13.8865 12.0758 13.5584 11.6256 13.1246 11.3072C12.6908 10.9887 12.1725 10.8177 11.6411 10.8177ZM11.6411 16.1515V18.8184C11.9818 18.8184 12.3085 18.6779 12.5494 18.4278C12.7903 18.1777 12.9256 17.8386 12.9256 17.4849C12.9256 17.1313 12.7903 16.7921 12.5494 16.542C12.3085 16.292 11.9818 16.1515 11.6411 16.1515Z" fill="white"/>
</svg>
