<svg width="20" height="17" viewBox="0 0 20 17" fill="none" xmlns="http://www.w3.org/2000/svg">
<path id="Vector" d="M8.45 11.8827C8.86667 12.2994 9.39167 12.4954 10.025 12.4707C10.6583 12.446 11.1167 12.2167 11.4 11.7827L17 3.38269L8.6 8.98269C8.16667 9.28269 7.92933 9.73669 7.888 10.3447C7.84667 10.9527 8.034 11.4654 8.45 11.8827ZM3.1 16.3827C2.73333 16.3827 2.396 16.3034 2.088 16.1447C1.78 15.986 1.534 15.7487 1.35 15.4327C0.916667 14.6494 0.583333 13.8367 0.35 12.9947C0.116667 12.1527 0 11.282 0 10.3827C0 8.99936 0.262667 7.69936 0.788 6.48269C1.31333 5.26602 2.02567 4.20769 2.925 3.30769C3.825 2.40769 4.88333 1.69536 6.1 1.17069C7.31667 0.646024 8.61667 0.383357 10 0.38269C11.3667 0.38269 12.65 0.641024 13.85 1.15769C15.05 1.67436 16.1 2.37869 17 3.27069C17.9 4.16202 18.6167 5.20369 19.15 6.39569C19.6833 7.58769 19.9583 8.86669 19.975 10.2327C19.9917 11.1494 19.8873 12.0454 19.662 12.9207C19.4367 13.796 19.091 14.6334 18.625 15.4327C18.4417 15.7494 18.1957 15.987 17.887 16.1457C17.5783 16.3044 17.241 16.3834 16.875 16.3827H3.1Z" fill="white"/>
</svg>
