<svg width="21" height="21" viewBox="0 0 21 21" fill="none" xmlns="http://www.w3.org/2000/svg">
    <path fill-rule="evenodd" clip-rule="evenodd" d="M10.2856 0.299683H2.72758C1.4504 0.299683 0.415039 1.33505 0.415039 2.61223V10.2092L8.74271 8.67508L10.2856 0.299683ZM0.415039 10.977V18.4784C0.415039 19.7556 1.4504 20.791 2.72759 20.791H10.268L8.74271 12.5111L0.415039 10.977ZM11.0534 20.791H18.5938C19.871 20.791 20.9063 19.7556 20.9063 18.4784V10.977L12.5787 12.5111L11.0534 20.791ZM20.9063 10.2092V2.61223C20.9063 1.33504 19.871 0.299683 18.5938 0.299683H11.0358L12.5787 8.67508L20.9063 10.2092Z" fill="#53D148"/>
    <path fill-rule="evenodd" clip-rule="evenodd" d="M10.2856 0.299683H2.72758C1.4504 0.299683 0.415039 1.33505 0.415039 2.61223V10.2092L8.74271 8.67508L10.2856 0.299683ZM0.415039 10.977V18.4784C0.415039 19.7556 1.4504 20.791 2.72759 20.791H10.268L8.74271 12.5111L0.415039 10.977ZM11.0534 20.791H18.5938C19.871 20.791 20.9063 19.7556 20.9063 18.4784V10.977L12.5787 12.5111L11.0534 20.791ZM20.9063 10.2092V2.61223C20.9063 1.33504 19.871 0.299683 18.5938 0.299683H11.0358L12.5787 8.67508L20.9063 10.2092Z" fill="url(#paint0_linear_237_1031)"/>
    <defs>
        <linearGradient id="paint0_linear_237_1031" x1="0.415039" y1="0.299683" x2="21.4392" y2="1.09355" gradientUnits="userSpaceOnUse">
            <stop stop-color="#FF6A9F"/>
            <stop offset="1" stop-color="#FF6A6A"/>
        </linearGradient>
    </defs>
</svg>
