<svg width="20" height="17" viewBox="0 0 20 17" fill="none" xmlns="http://www.w3.org/2000/svg">
    <path d="M18 0.299805H2C0.9 0.299805 0.00999999 1.1998 0.00999999 2.2998L0 14.2998C0 15.3998 0.9 16.2998 2 16.2998H18C19.1 16.2998 20 15.3998 20 14.2998V2.2998C20 1.1998 19.1 0.299805 18 0.299805ZM18 4.2998L10 9.2998L2 4.2998V2.2998L10 7.2998L18 2.2998V4.2998Z" fill="#5DCF35"/>
    <path d="M18 0.299805H2C0.9 0.299805 0.00999999 1.1998 0.00999999 2.2998L0 14.2998C0 15.3998 0.9 16.2998 2 16.2998H18C19.1 16.2998 20 15.3998 20 14.2998V2.2998C20 1.1998 19.1 0.299805 18 0.299805ZM18 4.2998L10 9.2998L2 4.2998V2.2998L10 7.2998L18 2.2998V4.2998Z" fill="url(#paint0_linear_237_1053)"/>
    <defs>
        <linearGradient id="paint0_linear_237_1053" x1="0" y1="0.299805" x2="20.5037" y2="1.26759" gradientUnits="userSpaceOnUse">
            <stop stop-color="#FF6A9F"/>
            <stop offset="1" stop-color="#FF6A6A"/>
        </linearGradient>
    </defs>
</svg>
