<svg width="32" height="33" viewBox="0 0 32 33" fill="none" xmlns="http://www.w3.org/2000/svg">
    <rect y="0.5" width="32" height="32" rx="16" fill="#886AFF"/>
    <rect y="0.5" width="32" height="32" rx="16" fill="url(#paint0_linear_31_1425)"/>
    <path d="M10.5801 13.3496C10.6338 10.707 12.5029 8.85938 15.8008 8.85938C18.873 8.85938 20.9033 10.5674 20.9033 13.0166C20.9033 14.6387 20.1191 15.7666 18.6045 16.6582C17.1758 17.4854 16.7783 18.0117 16.7783 19.0645V19.6338H13.9316L13.9102 19.0107C13.7705 17.3242 14.3613 16.3574 15.8438 15.4873C17.2295 14.6602 17.6484 14.1338 17.6484 13.1133C17.6484 12.0928 16.832 11.3516 15.6074 11.3516C14.3721 11.3516 13.5557 12.1357 13.4912 13.3496H10.5801ZM15.3926 24.7686C14.4258 24.7686 13.6416 24.0273 13.6416 23.082C13.6416 22.1367 14.4258 21.3955 15.3926 21.3955C16.3701 21.3955 17.1543 22.1367 17.1543 23.082C17.1543 24.0273 16.3701 24.7686 15.3926 24.7686Z" fill="white"/>
    <defs>
        <linearGradient id="paint0_linear_31_1425" x1="0" y1="0.5" x2="32.8322" y2="1.73975" gradientUnits="userSpaceOnUse">
            <stop stop-color="#FF6A9F"/>
            <stop offset="1" stop-color="#FF6A6A"/>
        </linearGradient>
    </defs>
</svg>
