<svg width="21" height="19" viewBox="0 0 21 19" fill="none" xmlns="http://www.w3.org/2000/svg">
    <path fill-rule="evenodd" clip-rule="evenodd" d="M17.304 17.3018V17.2997L17.3224 17.2557L20.3938 1.77086V1.7217C20.3938 1.33561 20.2504 0.998666 19.9412 0.796913C19.6698 0.619738 19.3574 0.607449 19.1382 0.623835C18.9342 0.642286 18.7329 0.683507 18.5381 0.74673C18.455 0.773517 18.373 0.803581 18.2923 0.836854L18.279 0.841974L1.15553 7.55924L1.15041 7.56129C1.09835 7.57907 1.0474 7.59993 0.997817 7.62376C0.876037 7.67848 0.759195 7.74358 0.648589 7.81835C0.428401 7.96992 0.00953183 8.32632 0.0801968 8.89164C0.138572 9.36069 0.461173 9.65769 0.679313 9.81233C0.808071 9.90256 0.946504 9.97813 1.09204 10.0376L1.12481 10.052L1.13505 10.055L1.14222 10.0581L4.13882 11.0669C4.12858 11.2543 4.14702 11.4458 4.1972 11.6353L5.69755 17.3284C5.77951 17.6387 5.95662 17.9156 6.204 18.1201C6.45139 18.3246 6.75662 18.4465 7.07682 18.4687C7.39703 18.4908 7.71613 18.4121 7.98931 18.2436C8.26249 18.0751 8.47603 17.8252 8.59993 17.5291L10.9431 15.0241L14.9669 18.1088L15.0243 18.1334C15.3899 18.2931 15.731 18.3433 16.0433 18.3013C16.3557 18.2583 16.6035 18.1272 16.7899 17.9787C17.0055 17.804 17.1773 17.5813 17.2917 17.3284L17.2999 17.311L17.303 17.3049L17.304 17.3018ZM5.68219 11.2441C5.66557 11.1809 5.66952 11.1141 5.69346 11.0533C5.7174 10.9925 5.76009 10.941 5.81532 10.9061L15.9757 4.45408C15.9757 4.45408 16.5738 4.09051 16.5523 4.45408C16.5523 4.45408 16.6588 4.51758 16.3383 4.8156C16.0351 5.09928 9.09664 11.7981 8.39408 12.4761C8.35502 12.514 8.32765 12.5624 8.31523 12.6154L7.18254 16.9372L5.68219 11.243V11.2441Z" fill="#53D148"/>
    <path fill-rule="evenodd" clip-rule="evenodd" d="M17.304 17.3018V17.2997L17.3224 17.2557L20.3938 1.77086V1.7217C20.3938 1.33561 20.2504 0.998666 19.9412 0.796913C19.6698 0.619738 19.3574 0.607449 19.1382 0.623835C18.9342 0.642286 18.7329 0.683507 18.5381 0.74673C18.455 0.773517 18.373 0.803581 18.2923 0.836854L18.279 0.841974L1.15553 7.55924L1.15041 7.56129C1.09835 7.57907 1.0474 7.59993 0.997817 7.62376C0.876037 7.67848 0.759195 7.74358 0.648589 7.81835C0.428401 7.96992 0.00953183 8.32632 0.0801968 8.89164C0.138572 9.36069 0.461173 9.65769 0.679313 9.81233C0.808071 9.90256 0.946504 9.97813 1.09204 10.0376L1.12481 10.052L1.13505 10.055L1.14222 10.0581L4.13882 11.0669C4.12858 11.2543 4.14702 11.4458 4.1972 11.6353L5.69755 17.3284C5.77951 17.6387 5.95662 17.9156 6.204 18.1201C6.45139 18.3246 6.75662 18.4465 7.07682 18.4687C7.39703 18.4908 7.71613 18.4121 7.98931 18.2436C8.26249 18.0751 8.47603 17.8252 8.59993 17.5291L10.9431 15.0241L14.9669 18.1088L15.0243 18.1334C15.3899 18.2931 15.731 18.3433 16.0433 18.3013C16.3557 18.2583 16.6035 18.1272 16.7899 17.9787C17.0055 17.804 17.1773 17.5813 17.2917 17.3284L17.2999 17.311L17.303 17.3049L17.304 17.3018ZM5.68219 11.2441C5.66557 11.1809 5.66952 11.1141 5.69346 11.0533C5.7174 10.9925 5.76009 10.941 5.81532 10.9061L15.9757 4.45408C15.9757 4.45408 16.5738 4.09051 16.5523 4.45408C16.5523 4.45408 16.6588 4.51758 16.3383 4.8156C16.0351 5.09928 9.09664 11.7981 8.39408 12.4761C8.35502 12.514 8.32765 12.5624 8.31523 12.6154L7.18254 16.9372L5.68219 11.243V11.2441Z" fill="url(#paint0_linear_237_1030)"/>
    <defs>
        <linearGradient id="paint0_linear_237_1030" x1="0.0722656" y1="0.61853" x2="20.9135" y2="1.51428" gradientUnits="userSpaceOnUse">
            <stop stop-color="#FF6A9F"/>
            <stop offset="1" stop-color="#FF6A6A"/>
        </linearGradient>
    </defs>
</svg>
