<svg width="23" height="17" viewBox="0 0 23 17" fill="none" xmlns="http://www.w3.org/2000/svg">
    <path d="M8.82045 11.8531L14.5427 8.54541L8.82045 5.23774V11.8531ZM21.566 3.22006C21.7093 3.73826 21.8086 4.43287 21.8747 5.31492C21.9519 6.19696 21.985 6.95773 21.985 7.61926L22.0511 8.54541C22.0511 10.96 21.8747 12.7351 21.566 13.8708C21.2904 14.8631 20.6509 15.5025 19.6586 15.7782C19.1404 15.9215 18.1922 16.0207 16.7368 16.0869C15.3035 16.1641 13.9914 16.1971 12.7786 16.1971L11.0256 16.2633C6.40585 16.2633 3.52818 16.0869 2.39255 15.7782C1.40025 15.5025 0.760764 14.8631 0.485125 13.8708C0.341792 13.3526 0.242562 12.6579 0.176409 11.7759C0.0992301 10.8939 0.0661533 10.1331 0.0661533 9.47155L0 8.54541C0 6.13081 0.176409 4.35569 0.485125 3.22006C0.760764 2.22776 1.40025 1.58828 2.39255 1.31264C2.91075 1.16931 3.85895 1.07008 5.31432 1.00392C6.74764 0.926745 8.05968 0.893668 9.2725 0.893668L11.0256 0.827515C15.6453 0.827515 18.5229 1.00392 19.6586 1.31264C20.6509 1.58828 21.2904 2.22776 21.566 3.22006Z" fill="#53D148"/>
    <path d="M8.82045 11.8531L14.5427 8.54541L8.82045 5.23774V11.8531ZM21.566 3.22006C21.7093 3.73826 21.8086 4.43287 21.8747 5.31492C21.9519 6.19696 21.985 6.95773 21.985 7.61926L22.0511 8.54541C22.0511 10.96 21.8747 12.7351 21.566 13.8708C21.2904 14.8631 20.6509 15.5025 19.6586 15.7782C19.1404 15.9215 18.1922 16.0207 16.7368 16.0869C15.3035 16.1641 13.9914 16.1971 12.7786 16.1971L11.0256 16.2633C6.40585 16.2633 3.52818 16.0869 2.39255 15.7782C1.40025 15.5025 0.760764 14.8631 0.485125 13.8708C0.341792 13.3526 0.242562 12.6579 0.176409 11.7759C0.0992301 10.8939 0.0661533 10.1331 0.0661533 9.47155L0 8.54541C0 6.13081 0.176409 4.35569 0.485125 3.22006C0.760764 2.22776 1.40025 1.58828 2.39255 1.31264C2.91075 1.16931 3.85895 1.07008 5.31432 1.00392C6.74764 0.926745 8.05968 0.893668 9.2725 0.893668L11.0256 0.827515C15.6453 0.827515 18.5229 1.00392 19.6586 1.31264C20.6509 1.58828 21.2904 2.22776 21.566 3.22006Z" fill="url(#paint0_linear_237_1029)"/>
    <defs>
        <linearGradient id="paint0_linear_237_1029" x1="0" y1="0.827515" x2="22.5911" y2="2.04615" gradientUnits="userSpaceOnUse">
            <stop stop-color="#FF6A9F"/>
            <stop offset="1" stop-color="#FF6A6A"/>
        </linearGradient>
    </defs>
</svg>
